<?xml version="1.0" standalone="no"?>
<!DOCTYPE svg PUBLIC "-//W3C//DTD SVG 20010904//EN"
 "http://www.w3.org/TR/2001/REC-SVG-20010904/DTD/svg10.dtd">
<svg version="1.0" xmlns="http://www.w3.org/2000/svg"
 width="260.000000pt" height="260.000000pt" viewBox="0 0 260.000000 260.000000"
 preserveAspectRatio="xMidYMid meet">
<metadata>
Created by potrace 1.11, written by Peter Selinger 2001-2013
</metadata>
<g transform="translate(0.000000,260.000000) scale(0.100000,-0.100000)"
fill="#000000" stroke="none">
<path d="M368 2576 c-136 -57 -258 -171 -324 -304 l-39 -77 0 -885 0 -885 40
-80 c77 -156 238 -285 410 -330 89 -23 1591 -23 1680 0 197 51 361 197 436
389 l28 71 1 828 c0 813 0 829 -21 890 -33 98 -76 166 -158 247 -56 55 -98 86
-156 115 l-80 40 -880 2 -880 2 -57 -23z m1762 -39 c203 -61 350 -214 401
-417 21 -81 21 -1539 0 -1620 -53 -211 -210 -368 -421 -421 -81 -21 -1549 -21
-1630 0 -205 52 -354 196 -418 406 -14 43 -16 158 -20 770 -3 729 0 821 34
921 64 193 245 342 454 374 30 4 390 7 800 6 661 -2 751 -4 800 -19z"/>
<path d="M866 1768 c-13 -29 -110 -235 -215 -457 -105 -222 -191 -406 -191
-408 0 -1 24 -3 53 -3 l54 0 71 150 71 150 196 0 195 0 72 -150 71 -150 53 0
54 0 -15 33 c-327 702 -414 882 -428 885 -12 2 -24 -13 -41 -50z m183 -460 c1
-5 -65 -8 -145 -8 -81 0 -144 4 -142 9 2 5 34 75 73 157 l70 147 72 -149 c39
-82 72 -152 72 -156z"/>
<path d="M1480 1360 l0 -460 50 0 50 0 0 209 0 208 133 7 c159 8 219 24 274
70 108 93 101 284 -15 372 -57 44 -115 54 -317 54 l-175 0 0 -460z m402 343
c101 -59 105 -199 6 -258 -27 -16 -56 -20 -170 -23 l-138 -4 0 157 0 158 134
-5 c109 -4 141 -9 168 -25z"/>
</g>
</svg>
